<?xml version="1.0" encoding="UTF-8"?><svg id="a" xmlns="http://www.w3.org/2000/svg" xmlns:xlink="http://www.w3.org/1999/xlink" viewBox="0 0 302.63 302.63"><defs><filter id="b" x="62.15" y="111.54" width="45.72" height="45.72" filterUnits="userSpaceOnUse"><feOffset dx="3.6" dy="3.6"/><feGaussianBlur result="c" stdDeviation="0"/><feFlood flood-color="#000" flood-opacity="1"/><feComposite in2="c" operator="in"/><feComposite in="SourceGraphic"/></filter><filter id="d" x="176.71" y="111.54" width="45.72" height="45.72" filterUnits="userSpaceOnUse"><feOffset dx="3.6" dy="3.6"/><feGaussianBlur result="e" stdDeviation="0"/><feFlood flood-color="#000" flood-opacity="1"/><feComposite in2="e" operator="in"/><feComposite in="SourceGraphic"/></filter><filter id="f" x="29.97" y="160.8" width="230.59" height="97.77" filterUnits="userSpaceOnUse"><feOffset dx="3.6" dy="3.6"/><feGaussianBlur result="g" stdDeviation="0"/><feFlood flood-color="#ea168e" flood-opacity="0"/><feComposite in2="g" operator="in"/><feComposite in="SourceGraphic"/></filter><filter id="h" x="136.44" y="163.35" width="29.52" height="19.77" filterUnits="userSpaceOnUse"><feOffset dx="2.16" dy="2.16"/><feGaussianBlur result="i" stdDeviation="0"/><feFlood flood-color="#000" flood-opacity="1"/><feComposite in2="i" operator="in"/><feComposite in="SourceGraphic"/></filter></defs><path d="M151.31,1.12C68.36,1.12,1.12,68.36,1.12,151.31s67.24,150.19,150.19,150.19,150.19-67.24,150.19-150.19S234.26,1.12,151.31,1.12Z" style="fill:#1eafed; stroke:#000; stroke-miterlimit:10; stroke-width:2.25px;"/><path d="M30.32,150.69v-36.18h14.34c8.54,0,10.94,3.9,10.94,8.84s-3.2,7.45-6.85,8.44v.1c5.75.7,8.39,3.85,8.39,8.84,0,7.39-5.8,9.94-13.64,9.94h-13.19ZM40.86,129.45c3.6,0,7.2-.65,7.2-4.85,0-3.9-2.6-4.15-6.05-4.15h-4v8.99h2.85ZM41.96,144.89c4.2,0,7-.9,7-4.85s-2.8-4.75-6.25-4.75h-4.7v9.59h3.95Z" style="fill:#f5e8cb; stroke:#000; stroke-miterlimit:10;"/><path d="M119.65,123.68c0,3.25,3.45,4.25,7.39,5.35,5.25,1.45,11.39,3.3,11.39,10.84,0,8.19-6.65,11.44-13.84,11.44-6.5,0-13.34-2.1-13.99-11.49l7-1.05c.6,3.5,1.9,6.15,7.2,6.15,3.2,0,6-.8,6-4.15,0-3.15-3.4-4.1-7.3-5.1-5.3-1.4-11.54-3-11.54-10.89,0-7.05,5.9-10.89,13.19-10.89,6.45,0,12.34,2,12.89,10.59l-7.05.8c-.3-3.4-1.7-5.45-5.95-5.45-3.7,0-5.4,1.55-5.4,3.85Z" style="fill:#f5e8cb; stroke:#000; stroke-miterlimit:10;"/><path d="M155.81,150.25v-29.68h-10.64v-6.5h28.93v6.5h-10.54v29.68h-7.75Z" style="fill:#f5e8cb; stroke:#000; stroke-miterlimit:10;"/><path d="M248.53,150.69l-13.94-25.53v25.53h-7.05v-36.18h9.19l13.69,25.63v-25.63h7v36.18h-8.89Z" style="fill:#f5e8cb; stroke:#000; stroke-miterlimit:10;"/><g style="filter:url(#b);"><path d="M62.65,132.6c0-7.83,3.42-13.71,10.27-17.62,3.41-1.96,6.84-2.94,10.27-2.94s6.84.98,10.27,2.94c6.87,3.92,10.31,9.79,10.31,17.62s-3.43,13.71-10.31,17.62c-3.43,1.96-6.86,2.94-10.27,2.94s-6.86-.98-10.27-2.94c-6.85-3.92-10.27-9.79-10.27-17.62ZM83.19,116.15c-2.74,0-5.48.79-8.22,2.37-5.48,3.12-8.22,7.81-8.22,14.08h16.43v-16.45Z" style="fill:#ea168e; stroke:#000; stroke-miterlimit:10;"/></g><g style="filter:url(#d);"><path d="M177.21,132.6c0-7.83,3.42-13.71,10.27-17.62,3.41-1.96,6.84-2.94,10.27-2.94s6.84.98,10.27,2.94c6.87,3.92,10.31,9.79,10.31,17.62s-3.43,13.71-10.31,17.62c-3.43,1.96-6.86,2.94-10.27,2.94s-6.86-.98-10.27-2.94c-6.85-3.92-10.27-9.79-10.27-17.62ZM197.75,116.15c-2.74,0-5.48.79-8.22,2.37-5.48,3.12-8.22,7.81-8.22,14.08h16.43v-16.45Z" style="fill:#ea168e; stroke:#000; stroke-miterlimit:10;"/></g><g style="filter:url(#f);"><path d="M30.69,162.83h29.1l20.28,64.84,20.02-64.84h28.26l-33.46,90.1h-30.18l-34.03-90.1Z" style="fill:#f5e8cb; stroke:#000; stroke-miterlimit:10;"/><path d="M141.22,194.54h18.08v58.39h-18.08v-58.39Z" style="fill:#f5e8cb; stroke:#000; stroke-miterlimit:10;"/><path d="M174.71,223.13l26.49-1.66c.57,4.3,1.74,7.58,3.5,9.83,2.87,3.65,6.97,5.47,12.29,5.47,3.97,0,7.04-.93,9.19-2.8,2.15-1.86,3.23-4.03,3.23-6.48s-1.03-4.42-3.07-6.27-6.8-3.58-14.26-5.22c-12.21-2.74-20.92-6.39-26.12-10.94-5.25-4.55-7.87-10.35-7.87-17.39,0-4.63,1.34-9,4.03-13.12,2.68-4.12,6.72-7.35,12.11-9.71,5.39-2.36,12.77-3.53,22.16-3.53,11.51,0,20.29,2.14,26.34,6.42,6.04,4.28,9.64,11.09,10.79,20.44l-26.24,1.54c-.7-4.06-2.16-7.01-4.39-8.85s-5.32-2.77-9.25-2.77c-3.24,0-5.68.69-7.31,2.06-1.64,1.37-2.46,3.04-2.46,5.01,0,1.43.68,2.73,2.03,3.87,1.31,1.19,4.43,2.29,9.34,3.32,12.17,2.62,20.88,5.28,26.15,7.96s9.1,6.01,11.49,9.99c2.4,3.97,3.6,8.42,3.6,13.34,0,5.78-1.6,11.1-4.79,15.98s-7.66,8.57-13.4,11.09c-5.74,2.52-12.97,3.78-21.7,3.78-15.33,0-25.94-2.95-31.84-8.85-5.9-5.9-9.24-13.4-10.02-22.5Z" style="fill:#f5e8cb; stroke:#000; stroke-miterlimit:10;"/></g><g style="filter:url(#h);"><path d="M163.42,163.79c0,2.55-.33,4.85-.99,6.91-.66,2.06-1.58,3.82-2.77,5.29-1.19,1.47-2.59,2.6-4.21,3.4-1.62.79-3.4,1.19-5.32,1.19s-3.6-.4-5.23-1.19-3.04-1.92-4.24-3.38c-1.2-1.46-2.15-3.22-2.83-5.29s-1.02-4.38-1.02-6.93v-.07h4.97c0,1.86.16,3.62.49,5.29.33,1.67.84,3.13,1.52,4.39.68,1.26,1.55,2.25,2.61,3,1.05.74,2.31,1.11,3.78,1.11.58,0,1.18-.09,1.8-.28s1.25-.49,1.87-.92c.62-.43,1.2-.99,1.75-1.69.55-.7,1.04-1.56,1.46-2.57.42-1.01.76-2.21,1.01-3.57.25-1.36.38-2.93.38-4.7v-.07h4.97v.07Z" style="fill:#ea168e; stroke:#000; stroke-miterlimit:10; stroke-width:.75px;"/></g><polygon points="153.65 53.23 153.65 95.31 126.75 95.31 126.75 53.23 127.54 53.23 127.54 52.54 129.6 52.54 129.6 49.8 151.19 49.8 151.19 52.54 153.26 52.54 153.26 53.23 153.65 53.23" style="fill:#f5e8cb; stroke:#000; stroke-miterlimit:10;"/><path d="M140.59,68.29c-6.16,0-8.61,3.65-8.61,11.39s2.14,11.59,8.32,11.59,8.52-3.74,8.52-11.75c0-7.51-1.99-11.23-8.22-11.23ZM140.42,87.26c-1.78,0-2.3-1.91-2.3-7.55s.67-7.31,2.4-7.31,2.21,1.72,2.21,7.28-.58,7.58-2.3,7.58Z" style="fill:#1eafed; stroke:#000; stroke-miterlimit:10;"/><path d="M166.37,8.58l-.16,10.2h-.63c-.3,0-.55.11-.55.25s.25.25.55.25h.63l-.09,5.55h-1.14v1.29h-3.19v1.37h17.51v-1.37h-3.12v-1.29h-9.23l-.19-5.55h.78c.3,0,.55-.11.55-.25s-.24-.25-.55-.25h-.8l-.36-10.2h0Z" style="fill:#f5e8cb; stroke:#000; stroke-miterlimit:10;"/><path d="M157.8,27.91v67.4h25.1V27.91h-25.1Z" style="fill:#f5e8cb; stroke:#000; stroke-miterlimit:10;"/><path d="M209.88,50.9v-2.69h-.93v-1.22h-.87v-1.37h-1.22v-1.06h-.86v-.92h-.58c-.94-2.6-3.53-4.47-6.58-4.47s-5.63,1.87-6.57,4.47h-.32v.92h-.87v1.06h-1.22v1.37h-.86v1.22h-.93v2.69h-1v44.41h23.81v-44.41h-.98Z" style="fill:#f5e8cb; stroke:#000; stroke-miterlimit:10;"/><path d="M205.4,82.13v-13.07h-6.95l-8.37,13.58v3.93h9.76v4.7h5.56v-4.7h2.42v-4.44h-2.42ZM199.85,82.13h-4.94l4.94-8.2v8.2Z" style="fill:#1eafed; stroke:#000; stroke-miterlimit:10;"/><polygon points="90.32 102.92 90.32 27.24 94.69 27.24 94.69 98.54 212.3 98.54 212.3 102.92 90.32 102.92" style="fill:#f5e8cb;"/><path d="M94.01,27.91v71.3h117.62v3.03h-120.63V27.91h3.02M95.36,26.57h-5.71v77.02h123.32v-5.72h-117.62V26.57h0Z"/><path d="M121.23,43.92v-1.96h-3.58v-2.79h-14.11v2.79h-3.47v1.96h-1.91v51.39h24.44v-51.39h-1.37Z" style="fill:#f5e8cb; stroke:#000; stroke-miterlimit:10;"/><path d="M117.99,86.49v4.78h-14.95v-4.72l4.52-5.03c2.64-2.91,4.35-4.87,4.35-6.86,0-1.05-.48-1.82-1.87-1.82s-2.3.98-2.54,3.02l-4.72-.83c.46-4.58,3.93-6.35,7.82-6.35,4.85,0,7.07,2.27,7.07,5.83s-1.72,5.28-5.92,9.66l-2.1,2.18v.16h8.36Z" style="fill:#1eafed; stroke:#000; stroke-miterlimit:10;"/><path d="M177.97,86.49v4.78h-14.94v-4.72l4.51-5.03c2.64-2.91,4.35-4.87,4.35-6.86,0-1.05-.48-1.82-1.87-1.82s-2.3.98-2.54,3.02l-4.72-.83c.46-4.58,3.93-6.35,7.82-6.35,4.86,0,7.07,2.27,7.07,5.83s-1.72,5.28-5.92,9.66l-2.09,2.18v.16h8.35Z" style="fill:#1eafed; stroke:#000; stroke-miterlimit:10;"/><path d="M151.31,1.12C68.36,1.12,1.12,68.36,1.12,151.31s67.24,150.19,150.19,150.19,150.19-67.24,150.19-150.19S234.26,1.12,151.31,1.12Z" style="fill:none; stroke:#000; stroke-miterlimit:10; stroke-width:2.25px;"/></svg>